<?xml version="1.0" encoding="utf-8"?>
<!-- Generator: Adobe Illustrator 16.0.0, SVG Export Plug-In . SVG Version: 6.00 Build 0)  -->
<!DOCTYPE svg PUBLIC "-//W3C//DTD SVG 1.1//EN" "http://www.w3.org/Graphics/SVG/1.1/DTD/svg11.dtd">
<svg version="1.1" id="Livello_1" xmlns="http://www.w3.org/2000/svg" xmlns:xlink="http://www.w3.org/1999/xlink" x="0px" y="0px"
	 width="1001px" height="345px" viewBox="0 0 1001 345" enable-background="new 0 0 1001 345" xml:space="preserve">
<g id="_x23_ffffffff">
</g>
<g id="_x23_0017ecff">
	<path fill="#FFFFFF" d="M10,1.98C23.49,1.52,37.85,5.65,46.98,16.08c9.59,9.229,9.859,23.51,10.25,35.909
		c0.06,70.681,0,141.351,0.02,212.021c0.03,11.82,0.07,23.66-1.06,35.439c-0.87,7.19-2,14.67-5.891,20.94
		c-5.119,7.93-13.359,13.62-22.399,16.18c-5.79,1.84-11.88,2.16-17.9,2.48C9.99,226.69,10,114.34,10,1.98z"/>
	<path fill="#FFFFFF" d="M72,134c17.82-0.88,36.05,2.52,51.601,11.489c21.6,12.391,39.029,33.04,45.18,57.421
		c2.87,10.779,3.01,22.02,2.97,33.1c0,34.42,0,68.83,0,103.25c-12.77,0.41-26.439-3.021-35.58-12.42
		c-7.779-7.46-12.42-18.061-12.42-28.86c-0.02-24.34,0.021-48.68-0.02-73.01c-0.19-15.35-8.96-29.83-21.69-38.12
		c-8.76-5.95-19.63-7.67-30.03-7.09C71.99,164.51,72,149.25,72,134z"/>
	<path fill="#FFFFFF" d="M263.94,136.38c9.25-2.33,18.82-2.601,28.31-2.38c0.011,15.25,0,30.51,0,45.76
		c-7.6-0.24-15.41,0.17-22.52,3.1c-16.37,6.74-28.76,23.21-29.23,41.11c0,23.34,0.01,46.68,0,70.02
		c-0.109,4.74-0.229,9.54-1.47,14.15c-2.98,11.06-10.8,20.75-21,25.96c-7.89,3.86-16.78,5.42-25.521,5.17
		c-0.029-38.12-0.01-76.24-0.01-114.35c0.181-18.141,5.7-36.32,16.46-51.01C222.25,155.63,241.71,141.4,263.94,136.38z"/>
	<path fill="#FFFFFF" d="M881.27,293.63c5.44,15.09,11.06,30.109,16.37,45.239c-0.71-0.06-2.13-0.189-2.84-0.25
		c-2.24-5.46-4.08-11.08-6.11-16.619c-4.96,0-9.91,0-14.86,0c-2.06,5.569-4.06,11.159-6.1,16.729c-0.74,0.01-2.21,0.01-2.95,0.021
		C870.27,323.71,875.68,308.64,881.27,293.63 M881.27,301.71c-2.23,5.81-4.28,11.68-6.41,17.529c4.25,0.011,8.51,0.021,12.771-0.01
		C885.52,313.39,883.36,307.56,881.27,301.71z"/>
	<path fill="#FFFFFF" d="M936.81,300.75c8.04-8.471,22.83-8.5,31.13-0.37c-0.75,0.569-1.5,1.14-2.229,1.71
		c-4.03-3.41-9.28-5.4-14.58-4.91c-6.61,0.271-12.591,4.5-15.851,10.109c-3.52,6.28-3.229,14.57,0.92,20.49
		c4.38,6.71,13.04,10.24,20.851,8.221c3.29-0.58,6.01-2.601,8.739-4.391c0.53,0.43,1.591,1.311,2.12,1.75
		c-4.33,3.87-10.069,6.15-15.91,5.92c-9.289,0.03-18.09-6.54-20.85-15.39C928.58,315.93,930.57,306.49,936.81,300.75z"/>
	<path fill="#FFFFFF" d="M285.01,294.99c0.62,0.011,1.881,0.03,2.511,0.04c-0.03,7.16-0.011,14.311-0.021,21.46
		c6,0.011,12,0,17.99,0.011c-0.01-7.141,0.04-14.28-0.03-21.41c0.7-0.03,2.09-0.101,2.79-0.13c0,14.6,0.011,29.199-0.01,43.8
		c-0.68-0.01-2.05-0.01-2.74-0.021c-0.01-6.489-0.01-12.979,0.011-19.47c-6-0.04-12,0-18.001-0.03c-0.02,6.5-0.01,12.99,0,19.48
		c-0.619,0.02-1.869,0.05-2.489,0.069C284.97,324.19,285.01,309.59,285.01,294.99z"/>
	<path fill="#FFFFFF" d="M316.24,295.01c6.271,0.43,13.5-1.61,18.79,2.79c6.75,4.899,7.44,15.85,1.42,21.6
		c-1.75,1.9-4.14,2.98-6.479,3.96c3.38,5.08,6.699,10.2,9.949,15.37c-1.13,0-2.26,0-3.38,0.01c-3.21-5.09-6.529-10.1-9.71-15.2
		c-2.609-0.039-5.22-0.039-7.83-0.039c0,5.09,0.011,10.18-0.01,15.27c-0.69-0.01-2.06-0.02-2.74-0.03
		C316.24,324.159,316.25,309.59,316.24,295.01 M319.01,297.5C319,305.329,319,313.17,319,321c5.04-0.07,10.95,0.739,14.92-3.091
		c5.07-4.22,5.19-12.8,0.21-17.149C330.16,296.78,324.13,297.55,319.01,297.5z"/>
	<path fill="#FFFFFF" d="M361.25,295.01c7.34-0.021,14.681-0.01,22.021,0c-0.021,0.62-0.04,1.87-0.061,2.5
		c-6.399-0.021-12.8-0.01-19.21-0.01c0,6,0,12,0,18c6.42,0,12.83-0.021,19.25,0.01c0,0.68,0,2.05,0,2.74
		c-6.42,0.01-12.83,0-19.239,0C363.99,324.159,364,330.079,364,336c6.42,0,12.83-0.011,19.25,0.01c0,0.68,0,2.05,0,2.74
		c-7.34,0-14.67,0.01-22,0C361.24,324.17,361.25,309.59,361.25,295.01z"/>
	<path fill="#FFFFFF" d="M389.73,295.01c0.79-0.01,2.37-0.01,3.16-0.01c3.25,5.64,6.529,11.27,9.729,16.949
		c3.19-5.68,6.561-11.26,9.74-16.939c0.81,0,2.43,0,3.24,0c-3.811,6.51-7.5,13.09-11.4,19.55c4.58,8.1,9.34,16.1,13.93,24.2
		c-0.779,0-2.359,0-3.149,0c-4.12-7.13-8.29-14.23-12.36-21.391c-4.04,7.141-8.22,14.21-12.26,21.36c-1.07,0.01-2.15,0.04-3.22,0.06
		c4.609-8.09,9.319-16.109,13.899-24.21C397.21,308.09,393.46,301.55,389.73,295.01z"/>
	<path fill="#FFFFFF" d="M430.99,295.88c7.9-3.03,17.84-1.65,23.76,4.699c-0.529,0.341-1.58,1.011-2.1,1.351
		c-3.51-2.271-7.24-4.59-11.55-4.729c-10.41-1.23-20.66,7.399-21.311,17.829c-1.17,9.891,6.48,19.75,16.3,21.21
		c5.95,1.16,12.101-0.95,16.65-4.819c0.47,0.55,1.4,1.659,1.87,2.21c-4.87,4-11.18,6.319-17.521,5.54
		c-11.069-0.73-20.47-11.061-20.13-22.15C416.54,307.9,422.6,299.19,430.99,295.88z"/>
	<path fill="#FFFFFF" d="M460,295c7.33,0,14.671,0,22,0c0,0.63-0.01,1.88-0.01,2.51c-6.42-0.01-12.83-0.01-19.24,0
		c0,5.99,0,11.99,0,17.99c6.41,0,12.82,0,19.24-0.011c0,0.69,0.01,2.07,0.021,2.761c-6.42,0.01-12.84-0.011-19.261,0
		c0,5.92,0,11.829,0,17.75c6.421,0,12.841-0.011,19.25,0c0,0.689,0,2.069-0.01,2.76c-7.33-0.01-14.66-0.01-21.979-0.01
		C459.99,324.17,460,309.579,460,295z"/>
	<path fill="#FFFFFF" d="M490.5,295c0.62,0,1.87,0,2.5,0c0,13.67,0,27.329,0,41c5.671,0,11.341-0.011,17.011,0
		c-0.011,0.689-0.021,2.069-0.021,2.76c-6.5-0.01-12.99-0.01-19.49,0C490.49,324.17,490.5,309.579,490.5,295z"/>
	<path fill="#FFFFFF" d="M515.25,295c0.631,0,1.881,0,2.5,0c0,13.67,0,27.329,0,41c5.681,0.01,11.351-0.021,17.03,0.02
		c-0.01,0.68-0.04,2.05-0.05,2.73c-6.5,0-12.99,0.01-19.48-0.011C515.24,324.159,515.24,309.579,515.25,295z"/>
	<path fill="#FFFFFF" d="M539.5,295c7.341,0,14.671-0.011,22.011,0.01c0,0.62-0.011,1.86-0.011,2.49
		c-6.489,0-12.989,0.01-19.479-0.011c0,6.03-0.12,12.05,0.07,18.07c6.47-0.13,12.939-0.04,19.409-0.06c0,0.689,0,2.06,0,2.739
		c-6.5,0.021-13,0.011-19.489,0.011C541.99,324.159,542,330.079,542,336c6.5,0,13-0.011,19.5,0c0,0.689,0.011,2.05,0.021,2.729
		c-7.34,0.04-14.68,0.01-22.01,0.03C539.49,324.17,539.5,309.579,539.5,295z"/>
	<path fill="#FFFFFF" d="M568.75,295c0.74,0,2.221,0,2.961,0c7.319,12.71,14.68,25.399,22,38.109
		c0.09-12.7,0.01-25.399,0.039-38.109c0.69,0,2.061,0,2.75,0c0.021,14.569-0.01,29.14,0.011,43.72c-0.67,0.02-2,0.05-2.67,0.069
		c-7.49-12.829-14.87-25.72-22.33-38.56c-0.011,12.83-0.011,25.66,0,38.5c-0.69,0.01-2.07,0.021-2.75,0.03
		C568.74,324.17,568.75,309.579,568.75,295z"/>
	<path fill="#FFFFFF" d="M616.06,296.12c8.05-3.46,18.05-1.87,24.39,4.279c-0.569,0.43-1.689,1.28-2.26,1.71
		c-3.91-3.42-9.09-5.33-14.3-4.939c-10.08,0.31-18.9,9.71-18.49,19.81c-0.229,10.07,8.57,19.24,18.62,19.53
		c5.28,0.39,10.37-1.771,14.41-5.061c0.62,0.721,1.24,1.431,1.87,2.16c-5.08,4.17-11.771,6.5-18.36,5.45
		c-10.41-1.09-19.14-10.62-19.3-21.1C601.85,308.75,607.68,299.75,616.06,296.12z"/>
	<path fill="#FFFFFF" d="M644.5,295c7.33,0,14.66-0.011,22,0.01c0,0.62,0,1.86,0,2.479c-6.42,0.021-12.829,0-19.239,0.021
		c-0.011,5.99-0.021,11.99,0,17.99c6.41-0.011,12.83-0.011,19.25,0c-0.011,0.689-0.021,2.06-0.03,2.75c-6.41,0-12.82,0-19.23,0
		c0,5.909,0,11.829,0,17.739c6.421,0.021,12.841,0,19.271,0.021c-0.01,0.68-0.03,2.06-0.04,2.75c-7.33-0.01-14.65-0.01-21.97,0
		C644.48,324.17,644.5,309.59,644.5,295z"/>
	<path fill="#FFFFFF" d="M687.5,295c0.69,0,2.061,0,2.75,0c0,14.6,0.021,29.199-0.01,43.8c-0.7-0.04-2.09-0.11-2.79-0.15
		C687.56,324.1,687.461,309.55,687.5,295z"/>
	<path fill="#FFFFFF" d="M702,295c0.771,0,2.311,0,3.08,0.01c7.36,12.81,14.78,25.58,22.16,38.37c0.01-12.801,0-25.591,0.01-38.38
		c0.631,0,1.87,0,2.5,0c0.011,14.579-0.01,29.159,0,43.739c-0.64,0.011-1.92,0.03-2.56,0.04c-7.52-12.87-14.9-25.83-22.43-38.7
		c-0.011,12.881,0,25.771-0.011,38.66c-0.68,0.011-2.05,0.03-2.729,0.04C701.98,324.18,702.01,309.59,702,295z"/>
	<path fill="#FFFFFF" d="M753.25,295.01c6.061,0.46,12.98-1.56,18.23,2.45c6.71,4.43,8.09,14.77,2.88,20.869
		c-1.88,2.431-4.649,3.921-7.46,5.011c3.38,5.1,6.68,10.26,10.03,15.38c-1.16,0.01-2.32,0.01-3.46,0.02
		c-3.25-5.09-6.5-10.18-9.78-15.25c-2.65,0.011-5.3,0.011-7.94,0.021c0,5.08,0.011,10.16-0.01,15.24c-0.62,0-1.859,0-2.479,0
		C753.23,324.17,753.25,309.59,753.25,295.01 M755.75,297.5c0.011,7.829,0,15.659,0,23.5c5.101-0.061,11.07,0.75,15.101-3.131
		c5.1-4.18,5.18-12.739,0.229-17.08C767.07,296.74,760.93,297.56,755.75,297.5z"/>
	<path fill="#FFFFFF" d="M782.24,295c7.34,0,14.67,0,22.01,0c0,0.63,0,1.87,0,2.489c-6.42,0.021-12.829,0.011-19.25,0.011
		c0,6-0.01,12,0,18c6.421,0,12.83-0.021,19.25,0.01c0,0.68,0,2.05,0.011,2.729c-6.42,0.021-12.84,0.011-19.25,0.011
		C784.99,324.159,785,330.079,785,336c6.41,0,12.83-0.011,19.25,0c0,0.689,0,2.06,0,2.75c-7.34,0-14.67,0.01-22-0.011
		C782.24,324.159,782.26,309.579,782.24,295z"/>
	<path fill="#FFFFFF" d="M811.301,305.03c-0.92-5.189,3.38-10.479,8.63-10.68c4.18-0.45,7.93,2.36,9.66,6.02
		c-0.61,0.271-1.83,0.82-2.44,1.101c-1.54-2.851-4.71-5.26-8.09-4.28c-4.5,0.89-6.75,6.92-3.75,10.47
		c3.91,4.551,10.75,4.761,14.64,9.391c6.141,5.75,4.391,17.1-3.21,20.72c-7.46,4.37-18.01-0.91-19.069-9.46
		c0.59-0.28,1.77-0.84,2.359-1.12c0.98,5.11,5.49,9.79,10.98,9.34c6.229-0.01,11.399-6.66,9.7-12.7
		c-1.19-5.14-6.23-8.06-10.82-9.779C815.921,312.539,811.801,309.579,811.301,305.03z"/>
	<path fill="#FFFFFF" d="M840,295c7.351,0,14.69,0,22.04,0c-0.029,0.64-0.09,1.91-0.13,2.54c-6.39-0.07-12.77-0.03-19.16-0.03
		c0,5.99,0,11.99,0,17.99c6.41,0,12.82,0,19.24-0.011c0,0.69,0.01,2.07,0.021,2.761c-6.42,0-12.84,0-19.261,0
		c0,5.92,0,11.829,0,17.75c6.421,0,12.83-0.011,19.25,0c0,0.689,0,2.06-0.01,2.75c-7.33,0.01-14.66,0-21.99,0.01
		C839.99,324.17,840,309.59,840,295z"/>
	<path fill="#FFFFFF" d="M902.24,295c6.101,0.47,13.04-1.53,18.33,2.45c6.45,4.369,7.98,14.239,3.22,20.379
		c-1.89,2.69-4.8,4.381-7.819,5.53c3.38,5.08,6.68,10.22,9.95,15.37c-1.141,0-2.261,0.01-3.381,0.01
		c-3.239-5.069-6.55-10.09-9.71-15.21c-2.619-0.029-5.22-0.029-7.819-0.04c-0.021,5.09,0,10.181-0.021,15.28
		c-0.689-0.01-2.05-0.02-2.74-0.02C902.24,324.17,902.26,309.59,902.24,295 M905,297.5c0,7.829,0,15.67,0,23.5
		c4.811-0.11,10.351,0.739,14.341-2.601c5.52-4.08,6-13.01,0.859-17.58C916.22,296.78,910.15,297.55,905,297.5z"/>
	<path fill="#FFFFFF" d="M973.25,295c0.62,0,1.881,0,2.5,0c-0.01,7.159-0.01,14.329,0,21.489c6,0,12,0.011,18.011,0
		c-0.021-7.16-0.021-14.33-0.011-21.489c0.69,0,2.061,0,2.75,0c0.011,14.569-0.01,29.149,0.011,43.729
		c-0.69,0.01-2.061,0.03-2.75,0.04c-0.03-6.51-0.011-13.01-0.011-19.51c-6-0.01-12-0.01-18-0.01c-0.01,6.5,0,13-0.01,19.5
		c-0.62,0-1.859,0-2.49,0C973.24,324.17,973.25,309.579,973.25,295z"/>
</g>
<g id="_x23_febf00ff">
	<path fill="#FFFFFF" d="M173.46,86.76c8.94-1.7,18.511-0.89,26.78,3.08c11.33,5.25,20.08,15.77,23.09,27.899
		c2.521,10.45,1.26,21.921-4.14,31.29c-6.96,12.591-20.73,21.131-35.15,21.48c-8.96,0.43-18.05-2.04-25.46-7.11
		c-11.91-7.899-19.359-22.13-18.609-36.46C139.96,107.88,154.85,90.39,173.46,86.76z"/>
</g>
</svg>
